<mxfile host="app.diagrams.net" modified="2021-01-15T11:27:32.683Z" agent="5.0 (Windows NT 10.0; Win64; x64) AppleWebKit/537.36 (KHTML, like Gecko) Chrome/87.0.4280.141 Safari/537.36" etag="irwAjETfchKq8w5bT69p" version="14.1.9" type="github">
  <diagram name="Page-1" id="82e54ff1-d628-8f03-85c4-9753963a91cd">
    <mxGraphModel dx="1185" dy="668" grid="1" gridSize="10" guides="1" tooltips="1" connect="1" arrows="1" fold="1" page="1" pageScale="1" pageWidth="1100" pageHeight="850" background="#ffffff" math="0" shadow="0">
      <root>
        <mxCell id="0" />
        <mxCell id="1" parent="0" />
        <mxCell id="_jT5m-Pq_1kyti12y3-c-9" value="&lt;br&gt;&lt;b style=&quot;font-family: &amp;#34;helvetica&amp;#34; ; text-align: left&quot;&gt;数据源管理对接Ymeta&lt;/b&gt;&lt;br&gt;&lt;br&gt;" style="rounded=0;whiteSpace=wrap;html=1;strokeColor=#FF66B3;" parent="1" vertex="1">
          <mxGeometry x="20" y="92" width="140" height="40" as="geometry" />
        </mxCell>
        <mxCell id="_jT5m-Pq_1kyti12y3-c-10" value="&lt;br&gt;&lt;b style=&quot;font-family: &amp;#34;helvetica&amp;#34; ; text-align: left&quot;&gt;数据源自动化运维管理&lt;/b&gt;&lt;br&gt;&lt;br&gt;" style="rounded=0;whiteSpace=wrap;html=1;strokeColor=#FF99CC;" parent="1" vertex="1">
          <mxGeometry x="167" y="92" width="133" height="40" as="geometry" />
        </mxCell>
        <mxCell id="rfO4SSI78TRFRQjld_3j-1" value="&lt;h1 class=&quot;heading-h1&quot;&gt;架构升级&lt;/h1&gt;" style="shape=step;perimeter=stepPerimeter;whiteSpace=wrap;html=1;fixedSize=1;fillColor=#dae8fc;strokeColor=#6c8ebf;" vertex="1" parent="1">
          <mxGeometry x="20" y="140" width="420" height="45" as="geometry" />
        </mxCell>
        <mxCell id="rfO4SSI78TRFRQjld_3j-2" value="&lt;h1 class=&quot;heading-h1&quot;&gt;&lt;div&gt;&lt;/div&gt;&lt;/h1&gt;&lt;h1 class=&quot;heading-h1&quot;&gt;技术演进&lt;/h1&gt;" style="shape=step;perimeter=stepPerimeter;whiteSpace=wrap;html=1;fixedSize=1;fillColor=#fff2cc;strokeColor=#d6b656;" vertex="1" parent="1">
          <mxGeometry x="290" y="248" width="590" height="45" as="geometry" />
        </mxCell>
        <mxCell id="rfO4SSI78TRFRQjld_3j-3" value="&lt;span style=&quot;font-size: 24px&quot;&gt;&lt;b&gt;ETL数据质量保障&lt;/b&gt;&lt;/span&gt;" style="shape=step;perimeter=stepPerimeter;whiteSpace=wrap;html=1;fixedSize=1;fillColor=#d5e8d4;strokeColor=#82b366;" vertex="1" parent="1">
          <mxGeometry x="427" y="140" width="503" height="45" as="geometry" />
        </mxCell>
        <mxCell id="rfO4SSI78TRFRQjld_3j-4" value="&lt;div&gt;&lt;h1 class=&quot;heading-h1&quot;&gt;自动化运维&lt;/h1&gt;&lt;/div&gt;" style="shape=step;perimeter=stepPerimeter;whiteSpace=wrap;html=1;fixedSize=1;fillColor=#f8cecc;strokeColor=#b85450;" vertex="1" parent="1">
          <mxGeometry x="860" y="40" width="230" height="45" as="geometry" />
        </mxCell>
        <mxCell id="rfO4SSI78TRFRQjld_3j-6" value="&lt;div&gt;&lt;h1 class=&quot;heading-h1&quot;&gt;自动化运维&lt;/h1&gt;&lt;/div&gt;" style="shape=step;perimeter=stepPerimeter;whiteSpace=wrap;html=1;fixedSize=1;fillColor=#f8cecc;strokeColor=#b85450;" vertex="1" parent="1">
          <mxGeometry x="20" y="40" width="280" height="45" as="geometry" />
        </mxCell>
        <mxCell id="rfO4SSI78TRFRQjld_3j-8" value="" style="endArrow=none;dashed=1;html=1;entryX=0;entryY=1;entryDx=0;entryDy=0;entryPerimeter=0;" edge="1" parent="1" target="rfO4SSI78TRFRQjld_3j-4">
          <mxGeometry width="50" height="50" relative="1" as="geometry">
            <mxPoint x="280" y="85" as="sourcePoint" />
            <mxPoint x="786" y="85" as="targetPoint" />
          </mxGeometry>
        </mxCell>
        <mxCell id="rfO4SSI78TRFRQjld_3j-9" value="" style="endArrow=none;dashed=1;html=1;entryX=0;entryY=0;entryDx=0;entryDy=0;entryPerimeter=0;" edge="1" parent="1" target="rfO4SSI78TRFRQjld_3j-4">
          <mxGeometry width="50" height="50" relative="1" as="geometry">
            <mxPoint x="280" y="40" as="sourcePoint" />
            <mxPoint x="810" y="40" as="targetPoint" />
          </mxGeometry>
        </mxCell>
        <mxCell id="rfO4SSI78TRFRQjld_3j-10" value="&lt;span style=&quot;color: rgb(0 , 0 , 0) ; font-family: &amp;#34;helvetica&amp;#34; ; font-size: 13px ; font-style: normal ; font-weight: 400 ; letter-spacing: normal ; text-align: center ; text-indent: 0px ; text-transform: none ; word-spacing: 0px ; background-color: rgb(248 , 249 , 250) ; display: inline ; float: none&quot;&gt;2021.1.1～2021.2.28&lt;/span&gt;" style="text;whiteSpace=wrap;html=1;" vertex="1" parent="1">
          <mxGeometry x="95" y="70" width="130" height="30" as="geometry" />
        </mxCell>
        <mxCell id="rfO4SSI78TRFRQjld_3j-11" value="&lt;span style=&quot;color: rgb(0 , 0 , 0) ; font-family: &amp;#34;helvetica&amp;#34; ; font-size: 13px ; font-style: normal ; font-weight: 400 ; letter-spacing: normal ; text-align: center ; text-indent: 0px ; text-transform: none ; word-spacing: 0px ; background-color: rgb(248 , 249 , 250) ; display: inline ; float: none&quot;&gt;2021.6.7～2021.6.30&lt;/span&gt;" style="text;whiteSpace=wrap;html=1;" vertex="1" parent="1">
          <mxGeometry x="885" y="70" width="130" height="30" as="geometry" />
        </mxCell>
        <mxCell id="rfO4SSI78TRFRQjld_3j-14" value="DataX&amp;nbsp;Cloud native &amp;amp; Airflow" style="rounded=0;whiteSpace=wrap;html=1;strokeColor=#66B2FF;fontStyle=1" vertex="1" parent="1">
          <mxGeometry x="20" y="195" width="180" height="40" as="geometry" />
        </mxCell>
        <mxCell id="rfO4SSI78TRFRQjld_3j-15" value="千寻功能整合" style="rounded=0;whiteSpace=wrap;html=1;strokeColor=#66B2FF;fontStyle=1" vertex="1" parent="1">
          <mxGeometry x="207" y="195" width="230" height="40" as="geometry" />
        </mxCell>
        <mxCell id="rfO4SSI78TRFRQjld_3j-17" value="&lt;span style=&quot;color: rgb(0 , 0 , 0) ; font-family: &amp;#34;helvetica&amp;#34; ; font-size: 13px ; font-style: normal ; font-weight: 400 ; letter-spacing: normal ; text-align: center ; text-indent: 0px ; text-transform: none ; word-spacing: 0px ; background-color: rgb(248 , 249 , 250) ; display: inline ; float: none&quot;&gt;2021.1.1～2021.3.31&lt;/span&gt;" style="text;whiteSpace=wrap;html=1;" vertex="1" parent="1">
          <mxGeometry x="160" y="170" width="130" height="30" as="geometry" />
        </mxCell>
        <mxCell id="rfO4SSI78TRFRQjld_3j-19" value="&lt;b style=&quot;font-family: &amp;#34;helvetica&amp;#34; ; text-align: left&quot;&gt;数据入仓运维性能提升&lt;/b&gt;" style="rounded=0;whiteSpace=wrap;html=1;strokeColor=#FF66B3;" vertex="1" parent="1">
          <mxGeometry x="860" y="92" width="100" height="40" as="geometry" />
        </mxCell>
        <mxCell id="rfO4SSI78TRFRQjld_3j-20" value="&lt;div style=&quot;text-align: left&quot;&gt;&lt;span&gt;&lt;font face=&quot;helvetica&quot;&gt;&lt;b&gt;离线ETL运维性提升&lt;/b&gt;&lt;/font&gt;&lt;/span&gt;&lt;/div&gt;" style="rounded=0;whiteSpace=wrap;html=1;strokeColor=#FF66B3;" vertex="1" parent="1">
          <mxGeometry x="970" y="92" width="120" height="40" as="geometry" />
        </mxCell>
        <mxCell id="rfO4SSI78TRFRQjld_3j-21" value="全链路数据比对和实时质量检测" style="rounded=0;whiteSpace=wrap;html=1;fontStyle=1;strokeColor=#00FF00;" vertex="1" parent="1">
          <mxGeometry x="446" y="195" width="200" height="40" as="geometry" />
        </mxCell>
        <mxCell id="rfO4SSI78TRFRQjld_3j-22" value="数据质量自动化治理和运维" style="rounded=0;whiteSpace=wrap;html=1;fontStyle=1;strokeColor=#00FF00;" vertex="1" parent="1">
          <mxGeometry x="650" y="195" width="280" height="40" as="geometry" />
        </mxCell>
        <mxCell id="rfO4SSI78TRFRQjld_3j-23" value="&lt;span style=&quot;color: rgb(0 , 0 , 0) ; font-family: &amp;#34;helvetica&amp;#34; ; font-size: 13px ; font-style: normal ; font-weight: 400 ; letter-spacing: normal ; text-align: center ; text-indent: 0px ; text-transform: none ; word-spacing: 0px ; background-color: rgb(248 , 249 , 250) ; display: inline ; float: none&quot;&gt;2021.4.1～2021.6.15&lt;/span&gt;" style="text;whiteSpace=wrap;html=1;" vertex="1" parent="1">
          <mxGeometry x="600" y="170" width="130" height="30" as="geometry" />
        </mxCell>
        <mxCell id="rfO4SSI78TRFRQjld_3j-24" value="&lt;span style=&quot;color: rgb(0 , 0 , 0) ; font-family: &amp;#34;helvetica&amp;#34; ; font-size: 13px ; font-style: normal ; font-weight: 400 ; letter-spacing: normal ; text-align: center ; text-indent: 0px ; text-transform: none ; word-spacing: 0px ; background-color: rgb(248 , 249 , 250) ; display: inline ; float: none&quot;&gt;2021.3.1～2021.5.31&lt;/span&gt;" style="text;whiteSpace=wrap;html=1;" vertex="1" parent="1">
          <mxGeometry x="490" y="280" width="130" height="30" as="geometry" />
        </mxCell>
        <mxCell id="rfO4SSI78TRFRQjld_3j-25" value="&lt;b&gt;Hound&amp;amp;Streaming合并&lt;/b&gt;" style="rounded=0;whiteSpace=wrap;html=1;fontStyle=1;strokeColor=#FFB570;" vertex="1" parent="1">
          <mxGeometry x="290" y="306" width="160" height="40" as="geometry" />
        </mxCell>
        <mxCell id="rfO4SSI78TRFRQjld_3j-26" value="&lt;b&gt;数仓ODS层数据自动化构建&lt;/b&gt;&lt;b&gt;&lt;br&gt;&lt;/b&gt;" style="rounded=0;whiteSpace=wrap;html=1;fontStyle=1;strokeColor=#FFB570;" vertex="1" parent="1">
          <mxGeometry x="457.5" y="306" width="182.5" height="40" as="geometry" />
        </mxCell>
        <mxCell id="rfO4SSI78TRFRQjld_3j-27" value="基于Flink的实时merge" style="rounded=0;whiteSpace=wrap;html=1;fontStyle=1;strokeColor=#FFB570;" vertex="1" parent="1">
          <mxGeometry x="650" y="306" width="220" height="40" as="geometry" />
        </mxCell>
      </root>
    </mxGraphModel>
  </diagram>
</mxfile>
